{
  "accessors": [
    {
      "bufferView": 2,
      "componentType": 5126,
      "count": 4083,
      "max": [
        16.192399978637695,
        16.251800537109375,
        43.69580078125
      ],
      "min": [
        -17.3125,
        -7.278600215911865,
        0.6255000233650208
      ],
      "type": "VEC3"
    },
    {
      "bufferView": 2,
      "byteOffset": 48996,
      "componentType": 5126,
      "count": 4083,
      "max": [
        0.9990779757499695,
        0.9993412494659424,
        0.9997749924659729
      ],
      "min": [
        -0.9997640252113342,
        -0.9996700882911682,
        -0.9999182224273682
      ],
      "type": "VEC3"
    },
    {
      "bufferView": 1,
      "componentType": 5126,
      "count": 4083,
      "max": [
        1.985200047492981,
        0.9921000003814697
      ],
      "min": [
        -0.10159999877214432,
        0.002099999925121665
      ],
      "type": "VEC2"
    },
    {
      "bufferView": 0,
      "componentType": 5125,
      "count": 13053,
      "type": "SCALAR"
    },
    {
      "bufferView": 2,
      "byteOffset": 97992,
      "componentType": 5126,
      "count": 3681,
      "max": [
        16.192399978637695,
        17.055700302124023,
        43.69580078125
      ],
      "min": [
        -12.608699798583984,
        -15.767999649047852,
        0.6255000233650208
      ],
      "type": "VEC3"
    },
    {
      "bufferView": 2,
      "byteOffset": 142164,
      "componentType": 5126,
      "count": 3681,
      "max": [
        0.9996350407600403,
        0.9994775652885437,
        0.9997749924659729
      ],
      "min": [
        -0.9997640252113342,
        -0.9998171925544739,
        -0.9999182224273682
      ],
      "type": "VEC3"
    },
    {
      "bufferView": 1,
      "byteOffset": 32664,
      "componentType": 5126,
      "count": 3681,
      "max": [
        1.9608999490737915,
        0.9897000193595886
      ],
      "min": [
        0.002099999925121665,
        0.002099999925121665
      ],
      "type": "VEC2"
    },
    {
      "bufferView": 0,
      "byteOffset": 52212,
      "componentType": 5125,
      "count": 11208,
      "type": "SCALAR"
    }
  ],
  "asset": {
    "extras": {
      "author": "kraken (https://sketchfab.com/kraken)",
      "license": "CC-BY-4.0 (http://creativecommons.org/licenses/by/4.0/)",
      "source": "https://sketchfab.com/3d-models/darius-95233e2a8c0e4fe891301b9d673dadc3",
      "title": "Darius"
    },
    "generator": "Sketchfab-12.66.0",
    "version": "2.0"
  },
  "bufferViews": [
    {
      "buffer": 0,
      "byteLength": 97044,
      "name": "floatBufferViews",
      "target": 34963
    },
    {
      "buffer": 0,
      "byteLength": 62112,
      "byteOffset": 97044,
      "byteStride": 8,
      "name": "floatBufferViews",
      "target": 34962
    },
    {
      "buffer": 0,
      "byteLength": 186336,
      "byteOffset": 159156,
      "byteStride": 12,
      "name": "floatBufferViews",
      "target": 34962
    }
  ],
  "buffers": [
    {
      "byteLength": 345492,
      "uri": "scene.bin"
    }
  ],
  "extensionsUsed": [
    "KHR_materials_unlit"
  ],
  "images": [
    {
      "uri": "textures/Scene_-_Root_baseColor.jpeg"
    }
  ],
  "materials": [
    {
      "doubleSided": true,
      "extensions": {
        "KHR_materials_unlit": {}
      },
      "name": "Scene_-_Root",
      "pbrMetallicRoughness": {
        "baseColorTexture": {
          "index": 0
        },
        "metallicFactor": 0.0
      }
    }
  ],
  "meshes": [
    {
      "name": "Object_0",
      "primitives": [
        {
          "attributes": {
            "NORMAL": 1,
            "POSITION": 0,
            "TEXCOORD_0": 2
          },
          "indices": 3,
          "material": 0,
          "mode": 4
        }
      ]
    },
    {
      "name": "Object_1",
      "primitives": [
        {
          "attributes": {
            "NORMAL": 5,
            "POSITION": 4,
            "TEXCOORD_0": 6
          },
          "indices": 7,
          "material": 0,
          "mode": 4
        }
      ]
    }
  ],
  "nodes": [
    {
      "children": [
        1
      ],
      "matrix": [
        1.0,
        0.0,
        0.0,
        0.0,
        0.0,
        2.220446049250313e-16,
        -1.0,
        0.0,
        0.0,
        1.0,
        2.220446049250313e-16,
        0.0,
        0.0,
        0.0,
        0.0,
        1.0
      ],
      "name": "Sketchfab_model"
    },
    {
      "children": [
        2,
        3
      ],
      "name": "Darius.obj.cleaner"
    },
    {
      "mesh": 0,
      "name": "Object_2"
    },
    {
      "mesh": 1,
      "name": "Object_3"
    }
  ],
  "samplers": [
    {
      "magFilter": 9729,
      "minFilter": 9987,
      "wrapS": 10497,
      "wrapT": 10497
    }
  ],
  "scene": 0,
  "scenes": [
    {
      "name": "Sketchfab_Scene",
      "nodes": [
        0
      ]
    }
  ],
  "textures": [
    {
      "sampler": 0,
      "source": 0
    }
  ]
}
